{
	"asset":{
		"generator":"Khronos glTF Blender I/O v3.6.27",
		"version":"2.0"
	},
	"scene":0,
	"scenes":[
		{
			"name":"Scene",
			"nodes":[
				7
			]
		}
	],
	"nodes":[
		{
			"mesh":0,
			"name":"Frame_m_Frame_0"
		},
		{
			"mesh":1,
			"name":"Glow_m_Glow_0"
		},
		{
			"children":[
				1
			],
			"name":"Glow"
		},
		{
			"children":[
				0,
				2
			],
			"name":"Frame",
			"scale":[
				6.817123889923096,
				6.8171234130859375,
				6.8171234130859375
			],
			"translation":[
				0,
				8.660654067993164,
				0
			]
		},
		{
			"children":[
				3
			],
			"name":"RootNode"
		},
		{
			"children":[
				4
			],
			"name":"Object_2"
		},
		{
			"children":[
				5
			],
			"name":"784609a9569d41359a3046ddbb5e1fc7.fbx",
			"rotation":[
				0.70710688829422,
				0,
				0,
				0.7071066498756409
			],
			"scale":[
				0.009999999776482582,
				0.010000000707805157,
				0.010000000707805157
			]
		},
		{
			"children":[
				6
			],
			"name":"Sketchfab_model",
			"rotation":[
				-0.70710688829422,
				0,
				0,
				0.7071066498756409
			]
		}
	],
	"animations":[
		{
			"channels":[
				{
					"sampler":0,
					"target":{
						"node":3,
						"path":"rotation"
					}
				},
				{
					"sampler":1,
					"target":{
						"node":2,
						"path":"rotation"
					}
				},
				{
					"sampler":2,
					"target":{
						"node":2,
						"path":"scale"
					}
				}
			],
			"name":"Take 001",
			"samplers":[
				{
					"input":8,
					"interpolation":"LINEAR",
					"output":9
				},
				{
					"input":10,
					"interpolation":"LINEAR",
					"output":11
				},
				{
					"input":8,
					"interpolation":"LINEAR",
					"output":12
				}
			]
		}
	],
	"materials":[
		{
			"doubleSided":true,
			"name":"m_Frame",
			"pbrMetallicRoughness":{
				"baseColorFactor":[
					0,
					0,
					0,
					1
				],
				"metallicFactor":0,
				"roughnessFactor":0
			}
		},
		{
			"doubleSided":true,
			"emissiveFactor":[
				0.46652480959892273,
				0.09413597732782364,
				0.12236033380031586
			],
			"name":"m_Glow",
			"pbrMetallicRoughness":{
				"metallicFactor":0,
				"roughnessFactor":0
			}
		}
	],
	"meshes":[
		{
			"name":"Frame_m_Frame_0",
			"primitives":[
				{
					"attributes":{
						"POSITION":0,
						"NORMAL":1,
						"TEXCOORD_0":2
					},
					"indices":3,
					"material":0
				}
			]
		},
		{
			"name":"Glow_m_Glow_0",
			"primitives":[
				{
					"attributes":{
						"POSITION":4,
						"NORMAL":5,
						"TEXCOORD_0":6
					},
					"indices":7,
					"material":1
				}
			]
		}
	],
	"accessors":[
		{
			"bufferView":0,
			"componentType":5126,
			"count":444,
			"max":[
				0.8716535568237305,
				0.8386781215667725,
				0.9625158309936523
			],
			"min":[
				-0.8716535568237305,
				-0.8386778831481934,
				-0.9625158309936523
			],
			"type":"VEC3"
		},
		{
			"bufferView":1,
			"componentType":5126,
			"count":444,
			"type":"VEC3"
		},
		{
			"bufferView":2,
			"componentType":5126,
			"count":444,
			"type":"VEC2"
		},
		{
			"bufferView":3,
			"componentType":5123,
			"count":1080,
			"type":"SCALAR"
		},
		{
			"bufferView":4,
			"componentType":5126,
			"count":60,
			"max":[
				0.8284280300140381,
				0.7878820896148682,
				0.8913323879241943
			],
			"min":[
				-0.8284280300140381,
				-0.78788161277771,
				-0.8913323879241943
			],
			"type":"VEC3"
		},
		{
			"bufferView":5,
			"componentType":5126,
			"count":60,
			"type":"VEC3"
		},
		{
			"bufferView":6,
			"componentType":5126,
			"count":60,
			"type":"VEC2"
		},
		{
			"bufferView":7,
			"componentType":5123,
			"count":60,
			"type":"SCALAR"
		},
		{
			"bufferView":8,
			"componentType":5126,
			"count":60,
			"max":[
				2.5
			],
			"min":[
				0.041666666666666664
			],
			"type":"SCALAR"
		},
		{
			"bufferView":9,
			"componentType":5126,
			"count":60,
			"type":"VEC4"
		},
		{
			"bufferView":10,
			"componentType":5126,
			"count":2,
			"max":[
				2.5
			],
			"min":[
				0.041666666666666664
			],
			"type":"SCALAR"
		},
		{
			"bufferView":11,
			"componentType":5126,
			"count":2,
			"type":"VEC4"
		},
		{
			"bufferView":12,
			"componentType":5126,
			"count":60,
			"type":"VEC3"
		}
	],
	"bufferViews":[
		{
			"buffer":0,
			"byteLength":5328,
			"byteOffset":0,
			"target":34962
		},
		{
			"buffer":0,
			"byteLength":5328,
			"byteOffset":5328,
			"target":34962
		},
		{
			"buffer":0,
			"byteLength":3552,
			"byteOffset":10656,
			"target":34962
		},
		{
			"buffer":0,
			"byteLength":2160,
			"byteOffset":14208,
			"target":34963
		},
		{
			"buffer":0,
			"byteLength":720,
			"byteOffset":16368,
			"target":34962
		},
		{
			"buffer":0,
			"byteLength":720,
			"byteOffset":17088,
			"target":34962
		},
		{
			"buffer":0,
			"byteLength":480,
			"byteOffset":17808,
			"target":34962
		},
		{
			"buffer":0,
			"byteLength":120,
			"byteOffset":18288,
			"target":34963
		},
		{
			"buffer":0,
			"byteLength":240,
			"byteOffset":18408
		},
		{
			"buffer":0,
			"byteLength":960,
			"byteOffset":18648
		},
		{
			"buffer":0,
			"byteLength":8,
			"byteOffset":19608
		},
		{
			"buffer":0,
			"byteLength":32,
			"byteOffset":19616
		},
		{
			"buffer":0,
			"byteLength":720,
			"byteOffset":19648
		}
	],
	"buffers":[
		{
			"byteLength":20368,
			"uri":"scene.bin"
		}
	]
}
