{
  "accessors": [
    {
      "bufferView": 2,
      "componentType": 5126,
      "count": 9054,
      "max": [
        1.0034242868423462,
        0.913779079914093,
        0.7824060320854187
      ],
      "min": [
        -1.003424048423767,
        -0.9902214407920837,
        -0.9926238656044006
      ],
      "type": "VEC3"
    },
    {
      "bufferView": 2,
      "byteOffset": 108648,
      "componentType": 5126,
      "count": 9054,
      "max": [
        0.9998561143875122,
        0.9995617866516113,
        0.9998561143875122
      ],
      "min": [
        -0.9998561143875122,
        -0.9998681545257568,
        -0.9998561143875122
      ],
      "type": "VEC3"
    },
    {
      "bufferView": 1,
      "componentType": 5126,
      "count": 9054,
      "max": [
        1.0002151727676392,
        0.9625989198684692
      ],
      "min": [
        -0.00790304783731699,
        -0.013943061232566833
      ],
      "type": "VEC2"
    },
    {
      "bufferView": 0,
      "componentType": 5125,
      "count": 15882,
      "type": "SCALAR"
    },
    {
      "bufferView": 2,
      "byteOffset": 217296,
      "componentType": 5126,
      "count": 272,
      "max": [
        0.6677567958831787,
        0.7782196402549744,
        0.8637708425521851
      ],
      "min": [
        -0.6677565574645996,
        -0.5190348029136658,
        -0.6738705039024353
      ],
      "type": "VEC3"
    },
    {
      "bufferView": 2,
      "byteOffset": 220560,
      "componentType": 5126,
      "count": 272,
      "max": [
        0.7350807189941406,
        0.8285757303237915,
        0.9976037740707397
      ],
      "min": [
        -0.7350807189941406,
        -0.5327134132385254,
        -0.6593334078788757
      ],
      "type": "VEC3"
    },
    {
      "bufferView": 1,
      "byteOffset": 72432,
      "componentType": 5126,
      "count": 272,
      "max": [
        0.9949100613594055,
        0.7901571393013
      ],
      "min": [
        0.005090262740850449,
        0.31950676441192627
      ],
      "type": "VEC2"
    },
    {
      "bufferView": 0,
      "byteOffset": 63528,
      "componentType": 5125,
      "count": 918,
      "type": "SCALAR"
    },
    {
      "bufferView": 2,
      "byteOffset": 223824,
      "componentType": 5126,
      "count": 2145,
      "max": [
        1.0849449634552002,
        0.8939934372901917,
        0.7855278253555298
      ],
      "min": [
        -1.084944486618042,
        -0.990221381187439,
        -1.0607603788375854
      ],
      "type": "VEC3"
    },
    {
      "bufferView": 2,
      "byteOffset": 249564,
      "componentType": 5126,
      "count": 2145,
      "max": [
        0.9976037740707397,
        0.9959473609924316,
        0.9998481273651123
      ],
      "min": [
        -0.9976037740707397,
        -0.9959473609924316,
        -0.9976037740707397
      ],
      "type": "VEC3"
    },
    {
      "bufferView": 1,
      "byteOffset": 74608,
      "componentType": 5126,
      "count": 2145,
      "max": [
        1.0,
        0.8704140782356262
      ],
      "min": [
        -0.008799183182418346,
        0.05743086338043213
      ],
      "type": "VEC2"
    },
    {
      "bufferView": 0,
      "byteOffset": 67200,
      "componentType": 5125,
      "count": 5076,
      "type": "SCALAR"
    },
    {
      "bufferView": 2,
      "byteOffset": 275304,
      "componentType": 5126,
      "count": 753,
      "max": [
        0.7199684381484985,
        0.8886140584945679,
        0.7198599576950073
      ],
      "min": [
        -0.7199682593345642,
        -0.9796393513679504,
        -0.7199572324752808
      ],
      "type": "VEC3"
    },
    {
      "bufferView": 2,
      "byteOffset": 284340,
      "componentType": 5126,
      "count": 753,
      "max": [
        0.8726038336753845,
        1.0,
        0.9801602959632874
      ],
      "min": [
        -0.8726038336753845,
        -1.0,
        -0.8726038336753845
      ],
      "type": "VEC3"
    },
    {
      "bufferView": 1,
      "byteOffset": 91768,
      "componentType": 5126,
      "count": 753,
      "max": [
        1.0000014305114746,
        1.0
      ],
      "min": [
        -1.4116084230408887e-06,
        0.004491439554840326
      ],
      "type": "VEC2"
    },
    {
      "bufferView": 0,
      "byteOffset": 87504,
      "componentType": 5125,
      "count": 1632,
      "type": "SCALAR"
    },
    {
      "bufferView": 2,
      "byteOffset": 293376,
      "componentType": 5126,
      "count": 11324,
      "max": [
        2.106586217880249,
        0.37881410121917725,
        0.7537773847579956
      ],
      "min": [
        -2.106586217880249,
        -0.37881410121917725,
        -2.054687738418579
      ],
      "type": "VEC3"
    },
    {
      "bufferView": 2,
      "byteOffset": 429264,
      "componentType": 5126,
      "count": 11324,
      "max": [
        0.9974300861358643,
        0.9999998807907104,
        1.0
      ],
      "min": [
        -1.0,
        -0.9999998807907104,
        -0.997874915599823
      ],
      "type": "VEC3"
    },
    {
      "bufferView": 1,
      "byteOffset": 97792,
      "componentType": 5126,
      "count": 11324,
      "max": [
        1.000000238418579,
        1.0
      ],
      "min": [
        0.0,
        -0.015033729374408722
      ],
      "type": "VEC2"
    },
    {
      "bufferView": 0,
      "byteOffset": 94032,
      "componentType": 5125,
      "count": 16884,
      "type": "SCALAR"
    },
    {
      "bufferView": 2,
      "byteOffset": 565152,
      "componentType": 5126,
      "count": 2880,
      "max": [
        2.052473306655884,
        0.3247014284133911,
        0.7227544188499451
      ],
      "min": [
        -2.052473306655884,
        -0.3247014284133911,
        -2.0299999713897705
      ],
      "type": "VEC3"
    },
    {
      "bufferView": 2,
      "byteOffset": 599712,
      "componentType": 5126,
      "count": 2880,
      "max": [
        0.9998566508293152,
        0.9659259915351868,
        0.9999839067459106
      ],
      "min": [
        -0.9998566508293152,
        -0.965925931930542,
        -0.9907304048538208
      ],
      "type": "VEC3"
    },
    {
      "bufferView": 1,
      "byteOffset": 188384,
      "componentType": 5126,
      "count": 2880,
      "max": [
        1.000000238418579,
        1.0
      ],
      "min": [
        0.75,
        0.06341689825057983
      ],
      "type": "VEC2"
    },
    {
      "bufferView": 0,
      "byteOffset": 161568,
      "componentType": 5125,
      "count": 4320,
      "type": "SCALAR"
    },
    {
      "bufferView": 2,
      "byteOffset": 634272,
      "componentType": 5126,
      "count": 360,
      "max": [
        2.0059592723846436,
        0.27818724513053894,
        0.5081321597099304
      ],
      "min": [
        -2.0059592723846436,
        -0.27818721532821655,
        -1.9122979640960693
      ],
      "type": "VEC3"
    },
    {
      "bufferView": 2,
      "byteOffset": 638592,
      "componentType": 5126,
      "count": 360,
      "max": [
        0.9474433064460754,
        0.965846598148346,
        1.0
      ],
      "min": [
        -0.9474433064460754,
        -0.9658464193344116,
        -0.9639840722084045
      ],
      "type": "VEC3"
    },
    {
      "bufferView": 1,
      "byteOffset": 211424,
      "componentType": 5126,
      "count": 360,
      "max": [
        1.0000001192092896,
        0.9707832336425781
      ],
      "min": [
        0.754332959651947,
        0.11257711797952652
      ],
      "type": "VEC2"
    },
    {
      "bufferView": 0,
      "byteOffset": 178848,
      "componentType": 5125,
      "count": 564,
      "type": "SCALAR"
    },
    {
      "bufferView": 3,
      "componentType": 5126,
      "count": 100,
      "max": [
        4.166666507720947
      ],
      "min": [
        0.0416666679084301
      ],
      "type": "SCALAR"
    },
    {
      "bufferView": 4,
      "componentType": 5126,
      "count": 100,
      "max": [
        0.0,
        1.0,
        -0.0,
        1.0
      ],
      "min": [
        0.0,
        -0.9988902807235718,
        -0.0,
        7.549790126404332e-08
      ],
      "type": "VEC4"
    },
    {
      "bufferView": 3,
      "byteOffset": 400,
      "componentType": 5126,
      "count": 3,
      "max": [
        4.166666507720947
      ],
      "min": [
        0.0
      ],
      "type": "SCALAR"
    },
    {
      "bufferView": 4,
      "byteOffset": 1600,
      "componentType": 5126,
      "count": 3,
      "max": [
        1.0,
        1.0,
        -0.0,
        0.0
      ],
      "min": [
        0.0,
        0.0,
        -0.0,
        0.0
      ],
      "type": "VEC4"
    }
  ],
  "animations": [
    {
      "channels": [
        {
          "sampler": 0,
          "target": {
            "node": 8,
            "path": "rotation"
          }
        }
      ],
      "name": "Action",
      "samplers": [
        {
          "input": 28,
          "interpolation": "LINEAR",
          "output": 29
        }
      ]
    },
    {
      "channels": [
        {
          "sampler": 0,
          "target": {
            "node": 8,
            "path": "rotation"
          }
        }
      ],
      "name": "Torus.001Action",
      "samplers": [
        {
          "input": 30,
          "interpolation": "LINEAR",
          "output": 31
        }
      ]
    }
  ],
  "asset": {
    "extras": {
      "author": "Rishav Gupta (https://sketchfab.com/Rishav_Gupta)",
      "license": "CC-BY-4.0 (http://creativecommons.org/licenses/by/4.0/)",
      "source": "https://sketchfab.com/3d-models/spaceship-orion-41de9d0d0eb74650b5fd98175d72fe71",
      "title": "Spaceship : Orion"
    },
    "generator": "Sketchfab-12.68.0",
    "version": "2.0"
  },
  "bufferViews": [
    {
      "buffer": 0,
      "byteLength": 181104,
      "name": "floatBufferViews",
      "target": 34963
    },
    {
      "buffer": 0,
      "byteLength": 214304,
      "byteOffset": 181104,
      "byteStride": 8,
      "name": "floatBufferViews",
      "target": 34962
    },
    {
      "buffer": 0,
      "byteLength": 642912,
      "byteOffset": 395408,
      "byteStride": 12,
      "name": "floatBufferViews",
      "target": 34962
    },
    {
      "buffer": 0,
      "byteLength": 412,
      "byteOffset": 1038320,
      "name": "floatBufferViews"
    },
    {
      "buffer": 0,
      "byteLength": 1648,
      "byteOffset": 1038732,
      "byteStride": 16,
      "name": "floatBufferViews"
    }
  ],
  "buffers": [
    {
      "byteLength": 1040380,
      "uri": "scene.bin"
    }
  ],
  "extensionsUsed": [
    "KHR_materials_clearcoat"
  ],
  "materials": [
    {
      "doubleSided": true,
      "name": "body",
      "pbrMetallicRoughness": {
        "baseColorFactor": [
          0.07046020000000003,
          0.11906599999999998,
          0.016320100000000008,
          1.0
        ],
        "metallicFactor": 0.7664085257879785,
        "roughnessFactor": 0.35976136200021186
      }
    },
    {
      "doubleSided": true,
      "extensions": {
        "KHR_materials_clearcoat": {
          "clearcoatFactor": 1.0,
          "clearcoatRoughnessFactor": 0.04
        }
      },
      "name": "glass",
      "pbrMetallicRoughness": {
        "baseColorFactor": [
          0.0374422,
          0.22225700000000015,
          0.42621300000000006,
          1.0
        ],
        "metallicFactor": 0.7906859684021734,
        "roughnessFactor": 0.13519501781890791
      }
    },
    {
      "doubleSided": true,
      "extensions": {
        "KHR_materials_clearcoat": {
          "clearcoatFactor": 1.0,
          "clearcoatRoughnessFactor": 0.04
        }
      },
      "name": "border",
      "pbrMetallicRoughness": {
        "baseColorFactor": [
          0.0,
          0.12988599999999997,
          0.05607809999999995,
          1.0
        ],
        "metallicFactor": 0.7482004438273322,
        "roughnessFactor": 0.3536920013466631
      }
    },
    {
      "doubleSided": true,
      "emissiveFactor": [
        0.0,
        0.3255588450965673,
        1.0
      ],
      "name": "thruster",
      "pbrMetallicRoughness": {
        "baseColorFactor": [
          0.0,
          1.0,
          0.16460807970228078,
          1.0
        ],
        "metallicFactor": 0.3476226406931143,
        "roughnessFactor": 0.5
      }
    }
  ],
  "meshes": [
    {
      "name": "Object_0",
      "primitives": [
        {
          "attributes": {
            "NORMAL": 1,
            "POSITION": 0,
            "TEXCOORD_0": 2
          },
          "indices": 3,
          "material": 0,
          "mode": 4
        }
      ]
    },
    {
      "name": "Object_1",
      "primitives": [
        {
          "attributes": {
            "NORMAL": 5,
            "POSITION": 4,
            "TEXCOORD_0": 6
          },
          "indices": 7,
          "material": 1,
          "mode": 4
        }
      ]
    },
    {
      "name": "Object_2",
      "primitives": [
        {
          "attributes": {
            "NORMAL": 9,
            "POSITION": 8,
            "TEXCOORD_0": 10
          },
          "indices": 11,
          "material": 2,
          "mode": 4
        }
      ]
    },
    {
      "name": "Object_3",
      "primitives": [
        {
          "attributes": {
            "NORMAL": 13,
            "POSITION": 12,
            "TEXCOORD_0": 14
          },
          "indices": 15,
          "material": 3,
          "mode": 4
        }
      ]
    },
    {
      "name": "Object_4",
      "primitives": [
        {
          "attributes": {
            "NORMAL": 17,
            "POSITION": 16,
            "TEXCOORD_0": 18
          },
          "indices": 19,
          "material": 2,
          "mode": 4
        }
      ]
    },
    {
      "name": "Object_5",
      "primitives": [
        {
          "attributes": {
            "NORMAL": 21,
            "POSITION": 20,
            "TEXCOORD_0": 22
          },
          "indices": 23,
          "material": 0,
          "mode": 4
        }
      ]
    },
    {
      "name": "Object_6",
      "primitives": [
        {
          "attributes": {
            "NORMAL": 25,
            "POSITION": 24,
            "TEXCOORD_0": 26
          },
          "indices": 27,
          "material": 3,
          "mode": 4
        }
      ]
    }
  ],
  "nodes": [
    {
      "children": [
        1
      ],
      "matrix": [
        1.0,
        0.0,
        0.0,
        0.0,
        0.0,
        2.220446049250313e-16,
        -1.0,
        0.0,
        0.0,
        1.0,
        2.220446049250313e-16,
        0.0,
        0.0,
        0.0,
        0.0,
        1.0
      ],
      "name": "Sketchfab_model"
    },
    {
      "children": [
        2
      ],
      "name": "root"
    },
    {
      "children": [
        3,
        8
      ],
      "matrix": [
        1.0,
        0.0,
        0.0,
        0.0,
        0.0,
        2.220446049250313e-16,
        1.0,
        0.0,
        0.0,
        -1.0,
        2.220446049250313e-16,
        0.0,
        0.0,
        0.0,
        0.0,
        1.0
      ],
      "name": "GLTF_SceneRootNode"
    },
    {
      "children": [
        4,
        5,
        6,
        7
      ],
      "matrix": [
        1.0,
        0.0,
        0.0,
        0.0,
        0.0,
        1.0,
        0.0,
        0.0,
        0.0,
        0.0,
        1.0,
        0.0,
        0.0,
        0.5921748280525208,
        0.0,
        1.0
      ],
      "name": "Sphere_1"
    },
    {
      "mesh": 0,
      "name": "Object_4"
    },
    {
      "mesh": 1,
      "name": "Object_5"
    },
    {
      "mesh": 2,
      "name": "Object_6"
    },
    {
      "mesh": 3,
      "name": "Object_7"
    },
    {
      "children": [
        9,
        10,
        11
      ],
      "name": "Torus.001_2",
      "translation": [
        0.0,
        0.5921748280525208,
        0.0
      ]
    },
    {
      "mesh": 4,
      "name": "Object_9"
    },
    {
      "mesh": 5,
      "name": "Object_10"
    },
    {
      "mesh": 6,
      "name": "Object_11"
    }
  ],
  "scene": 0,
  "scenes": [
    {
      "name": "Sketchfab_Scene",
      "nodes": [
        0
      ]
    }
  ]
}
