{
  "accessors": [
    {
      "bufferView": 2,
      "componentType": 5126,
      "count": 444,
      "max": [
        0.8716535568237305,
        0.8386781215667725,
        0.9625158309936523
      ],
      "min": [
        -0.8716535568237305,
        -0.8386778831481934,
        -0.9625158309936523
      ],
      "type": "VEC3"
    },
    {
      "bufferView": 2,
      "byteOffset": 5328,
      "componentType": 5126,
      "count": 444,
      "max": [
        0.9965395927429199,
        0.9996431469917297,
        1.0
      ],
      "min": [
        -0.9965397119522095,
        -0.9996431469917297,
        -1.0
      ],
      "type": "VEC3"
    },
    {
      "bufferView": 1,
      "componentType": 5126,
      "count": 444,
      "max": [
        0.9138434529304504,
        0.9980080723762512
      ],
      "min": [
        0.001824038801714778,
        0.00199203216470778
      ],
      "type": "VEC2"
    },
    {
      "bufferView": 0,
      "componentType": 5125,
      "count": 1080,
      "type": "SCALAR"
    },
    {
      "bufferView": 2,
      "byteOffset": 10656,
      "componentType": 5126,
      "count": 60,
      "max": [
        0.8284280300140381,
        0.7878820896148682,
        0.8913323879241943
      ],
      "min": [
        -0.8284280300140381,
        -0.78788161277771,
        -0.8913323879241943
      ],
      "type": "VEC3"
    },
    {
      "bufferView": 2,
      "byteOffset": 11376,
      "componentType": 5126,
      "count": 60,
      "max": [
        0.982246994972229,
        0.9341723322868347,
        0.7946545481681824
      ],
      "min": [
        -0.982246994972229,
        -0.9341725707054138,
        -0.7946547865867615
      ],
      "type": "VEC3"
    },
    {
      "bufferView": 1,
      "byteOffset": 3552,
      "componentType": 5126,
      "count": 60,
      "max": [
        0.9980080127716064,
        0.8930394053459167
      ],
      "min": [
        0.00199203216470778,
        0.0017825139220803976
      ],
      "type": "VEC2"
    },
    {
      "bufferView": 0,
      "byteOffset": 4320,
      "componentType": 5125,
      "count": 60,
      "type": "SCALAR"
    },
    {
      "bufferView": 3,
      "componentType": 5126,
      "count": 79,
      "max": [
        2.5
      ],
      "min": [
        0.0416666679084301
      ],
      "type": "SCALAR"
    },
    {
      "bufferView": 4,
      "componentType": 5126,
      "count": 79,
      "max": [
        1.0,
        1.0,
        1.0
      ],
      "min": [
        0.9518474340438843,
        0.9518474340438843,
        0.9518474340438843
      ],
      "type": "VEC3"
    },
    {
      "bufferView": 3,
      "byteOffset": 316,
      "componentType": 5126,
      "count": 77,
      "max": [
        2.5
      ],
      "min": [
        0.0416666679084301
      ],
      "type": "SCALAR"
    },
    {
      "bufferView": 5,
      "componentType": 5126,
      "count": 77,
      "max": [
        2.979817935249019e-32,
        8.630809128823191e-17,
        1.5101781636525322e-32,
        1.0
      ],
      "min": [
        -1.7968921091408332e-32,
        -5.823688340318746e-17,
        -7.56548384594415e-33,
        1.0
      ],
      "type": "VEC4"
    },
    {
      "bufferView": 3,
      "byteOffset": 624,
      "componentType": 5126,
      "count": 75,
      "max": [
        2.5
      ],
      "min": [
        0.0416666679084301
      ],
      "type": "SCALAR"
    },
    {
      "bufferView": 5,
      "byteOffset": 1232,
      "componentType": 5126,
      "count": 75,
      "max": [
        8.286434649227155e-17,
        1.0,
        8.286434649227155e-17,
        1.0
      ],
      "min": [
        -8.658415123714291e-17,
        -0.8544739484786987,
        -8.658415123714291e-17,
        -0.47130972146987915
      ],
      "type": "VEC4"
    }
  ],
  "animations": [
    {
      "channels": [
        {
          "sampler": 0,
          "target": {
            "node": 6,
            "path": "scale"
          }
        },
        {
          "sampler": 1,
          "target": {
            "node": 6,
            "path": "rotation"
          }
        },
        {
          "sampler": 2,
          "target": {
            "node": 4,
            "path": "rotation"
          }
        }
      ],
      "name": "Take 001",
      "samplers": [
        {
          "input": 8,
          "interpolation": "LINEAR",
          "output": 9
        },
        {
          "input": 10,
          "interpolation": "LINEAR",
          "output": 11
        },
        {
          "input": 12,
          "interpolation": "LINEAR",
          "output": 13
        }
      ]
    }
  ],
  "asset": {
    "extras": {
      "author": "Paris Mutter (https://sketchfab.com/octrpus)",
      "license": "CC-BY-4.0 (http://creativecommons.org/licenses/by/4.0/)",
      "source": "https://sketchfab.com/3d-models/abstract-shape-0d47375184474088945581568115e2d9",
      "title": "Abstract Shape"
    },
    "generator": "Sketchfab-13.17.0",
    "version": "2.0"
  },
  "bufferViews": [
    {
      "buffer": 0,
      "byteLength": 4560,
      "name": "floatBufferViews",
      "target": 34963
    },
    {
      "buffer": 0,
      "byteLength": 4032,
      "byteOffset": 4560,
      "byteStride": 8,
      "name": "floatBufferViews",
      "target": 34962
    },
    {
      "buffer": 0,
      "byteLength": 12096,
      "byteOffset": 8592,
      "byteStride": 12,
      "name": "floatBufferViews",
      "target": 34962
    },
    {
      "buffer": 0,
      "byteLength": 924,
      "byteOffset": 20688,
      "name": "floatBufferViews"
    },
    {
      "buffer": 0,
      "byteLength": 948,
      "byteOffset": 21612,
      "byteStride": 12,
      "name": "floatBufferViews"
    },
    {
      "buffer": 0,
      "byteLength": 2432,
      "byteOffset": 22560,
      "byteStride": 16,
      "name": "floatBufferViews"
    }
  ],
  "buffers": [
    {
      "byteLength": 24992,
      "uri": "scene.bin"
    }
  ],
  "materials": [
    {
      "doubleSided": true,
      "name": "m_Frame",
      "pbrMetallicRoughness": {
        "baseColorFactor": [
          0.0,
          0.0,
          0.0,
          1.0
        ],
        "metallicFactor": 0.0,
        "roughnessFactor": 0.0
      }
    },
    {
      "doubleSided": true,
      "emissiveFactor": [
        0.0,
        0.4665247970925634,
        0.4631018830282618
      ],
      "name": "m_Glow",
      "pbrMetallicRoughness": {
        "metallicFactor": 0.0,
        "roughnessFactor": 0.0
      }
    }
  ],
  "meshes": [
    {
      "name": "Frame_m_Frame_0",
      "primitives": [
        {
          "attributes": {
            "NORMAL": 1,
            "POSITION": 0,
            "TEXCOORD_0": 2
          },
          "indices": 3,
          "material": 0,
          "mode": 4
        }
      ]
    },
    {
      "name": "Glow_m_Glow_0",
      "primitives": [
        {
          "attributes": {
            "NORMAL": 5,
            "POSITION": 4,
            "TEXCOORD_0": 6
          },
          "indices": 7,
          "material": 1,
          "mode": 4
        }
      ]
    }
  ],
  "nodes": [
    {
      "children": [
        1
      ],
      "matrix": [
        1.0,
        0.0,
        0.0,
        0.0,
        0.0,
        2.220446049250313e-16,
        -1.0,
        0.0,
        0.0,
        1.0,
        2.220446049250313e-16,
        0.0,
        0.0,
        0.0,
        0.0,
        1.0
      ],
      "name": "Sketchfab_model"
    },
    {
      "children": [
        2
      ],
      "matrix": [
        0.009999999776482582,
        0.0,
        0.0,
        0.0,
        0.0,
        0.0,
        0.009999999776482582,
        0.0,
        0.0,
        -0.009999999776482582,
        0.0,
        0.0,
        0.0,
        0.0,
        0.0,
        1.0
      ],
      "name": "784609a9569d41359a3046ddbb5e1fc7.fbx"
    },
    {
      "children": [
        3
      ],
      "name": "Object_2"
    },
    {
      "children": [
        4
      ],
      "name": "RootNode"
    },
    {
      "children": [
        5,
        6
      ],
      "name": "Frame",
      "scale": [
        6.817123889923096,
        6.817123889923096,
        6.817123889923096
      ],
      "translation": [
        0.0,
        8.66065502166748,
        0.0
      ]
    },
    {
      "mesh": 0,
      "name": "Frame_m_Frame_0"
    },
    {
      "children": [
        7
      ],
      "name": "Glow"
    },
    {
      "mesh": 1,
      "name": "Glow_m_Glow_0"
    }
  ],
  "scene": 0,
  "scenes": [
    {
      "name": "Sketchfab_Scene",
      "nodes": [
        0
      ]
    }
  ]
}
