{
  "accessors": [
    {
      "bufferView": 2,
      "componentType": 5126,
      "count": 2169,
      "max": [
        0.20762372016906738,
        0.08700000494718552,
        0.28603076934814453
      ],
      "min": [
        -0.23487025499343872,
        -0.08700000494718552,
        -0.26852157711982727
      ],
      "type": "VEC3"
    },
    {
      "bufferView": 2,
      "byteOffset": 26028,
      "componentType": 5126,
      "count": 2169,
      "max": [
        0.9969221353530884,
        1.0,
        0.9969209432601929
      ],
      "min": [
        -0.9967714548110962,
        -1.0,
        -0.9969126582145691
      ],
      "type": "VEC3"
    },
    {
      "bufferView": 1,
      "componentType": 5126,
      "count": 2169,
      "max": [
        1.0,
        1.0
      ],
      "min": [
        0.0,
        0.0
      ],
      "type": "VEC2"
    },
    {
      "bufferView": 0,
      "componentType": 5125,
      "count": 11004,
      "type": "SCALAR"
    },
    {
      "bufferView": 2,
      "byteOffset": 52056,
      "componentType": 5126,
      "count": 2179,
      "max": [
        0.21131157875061035,
        0.08499999344348907,
        0.28907278180122375
      ],
      "min": [
        -0.23804287612438202,
        -0.08500000834465027,
        -0.2714797854423523
      ],
      "type": "VEC3"
    },
    {
      "bufferView": 2,
      "byteOffset": 78204,
      "componentType": 5126,
      "count": 2179,
      "max": [
        0.9969221353530884,
        1.0,
        0.9969209432601929
      ],
      "min": [
        -0.9967714548110962,
        -1.0,
        -0.9969102740287781
      ],
      "type": "VEC3"
    },
    {
      "bufferView": 1,
      "byteOffset": 17352,
      "componentType": 5126,
      "count": 2179,
      "max": [
        1.0,
        1.0
      ],
      "min": [
        0.0,
        0.0
      ],
      "type": "VEC2"
    },
    {
      "bufferView": 0,
      "byteOffset": 44016,
      "componentType": 5125,
      "count": 11004,
      "type": "SCALAR"
    },
    {
      "bufferView": 2,
      "byteOffset": 104352,
      "componentType": 5126,
      "count": 2169,
      "max": [
        0.19872993230819702,
        0.09200000017881393,
        0.27906376123428345
      ],
      "min": [
        -0.2277563214302063,
        -0.09200000017881393,
        -0.26148805022239685
      ],
      "type": "VEC3"
    },
    {
      "bufferView": 2,
      "byteOffset": 130380,
      "componentType": 5126,
      "count": 2169,
      "max": [
        0.9969221353530884,
        1.0,
        0.9969209432601929
      ],
      "min": [
        -0.9967714548110962,
        -1.0,
        -0.9969102740287781
      ],
      "type": "VEC3"
    },
    {
      "bufferView": 1,
      "byteOffset": 34784,
      "componentType": 5126,
      "count": 2169,
      "max": [
        1.0,
        1.0
      ],
      "min": [
        0.0,
        0.0
      ],
      "type": "VEC2"
    },
    {
      "bufferView": 0,
      "byteOffset": 88032,
      "componentType": 5125,
      "count": 11004,
      "type": "SCALAR"
    }
  ],
  "asset": {
    "extras": {
      "author": "Jihambru (https://sketchfab.com/jihambru)",
      "license": "CC-BY-4.0 (http://creativecommons.org/licenses/by/4.0/)",
      "source": "https://sketchfab.com/3d-models/3d-number-3-three-ae5779c280a54dbd8cf7e79526115464",
      "title": "3D Number - 3 (THREE)"
    },
    "generator": "Sketchfab-12.68.0",
    "version": "2.0"
  },
  "bufferViews": [
    {
      "buffer": 0,
      "byteLength": 132048,
      "name": "floatBufferViews",
      "target": 34963
    },
    {
      "buffer": 0,
      "byteLength": 52136,
      "byteOffset": 132048,
      "byteStride": 8,
      "name": "floatBufferViews",
      "target": 34962
    },
    {
      "buffer": 0,
      "byteLength": 156408,
      "byteOffset": 184184,
      "byteStride": 12,
      "name": "floatBufferViews",
      "target": 34962
    }
  ],
  "buffers": [
    {
      "byteLength": 340592,
      "uri": "scene.bin"
    }
  ],
  "materials": [
    {
      "doubleSided": true,
      "emissiveFactor": [
        0.0349891,
        0.21477899999999991,
        0.9699419999999996
      ],
      "name": "Shine_blue_th",
      "pbrMetallicRoughness": {
        "baseColorFactor": [
          0.0349891,
          0.21477899999999991,
          0.9699419999999996,
          1.0
        ],
        "metallicFactor": 0.0,
        "roughnessFactor": 0.5
      }
    },
    {
      "doubleSided": true,
      "name": "Metal_gray",
      "pbrMetallicRoughness": {
        "baseColorFactor": [
          0.205885,
          0.205886,
          0.246187,
          1.0
        ],
        "roughnessFactor": 0.17
      }
    }
  ],
  "meshes": [
    {
      "name": "Object_0",
      "primitives": [
        {
          "attributes": {
            "NORMAL": 1,
            "POSITION": 0,
            "TEXCOORD_0": 2
          },
          "indices": 3,
          "material": 0,
          "mode": 4
        }
      ]
    },
    {
      "name": "Object_1",
      "primitives": [
        {
          "attributes": {
            "NORMAL": 5,
            "POSITION": 4,
            "TEXCOORD_0": 6
          },
          "indices": 7,
          "material": 1,
          "mode": 4
        }
      ]
    },
    {
      "name": "Object_2",
      "primitives": [
        {
          "attributes": {
            "NORMAL": 9,
            "POSITION": 8,
            "TEXCOORD_0": 10
          },
          "indices": 11,
          "material": 1,
          "mode": 4
        }
      ]
    }
  ],
  "nodes": [
    {
      "children": [
        1
      ],
      "matrix": [
        1.0,
        0.0,
        0.0,
        0.0,
        0.0,
        2.220446049250313e-16,
        -1.0,
        0.0,
        0.0,
        1.0,
        2.220446049250313e-16,
        0.0,
        0.0,
        0.0,
        0.0,
        1.0
      ],
      "name": "Sketchfab_model"
    },
    {
      "children": [
        2
      ],
      "name": "root"
    },
    {
      "children": [
        3,
        5,
        7
      ],
      "matrix": [
        1.0,
        0.0,
        0.0,
        0.0,
        0.0,
        2.220446049250313e-16,
        1.0,
        0.0,
        0.0,
        -1.0,
        2.220446049250313e-16,
        0.0,
        0.0,
        0.0,
        0.0,
        1.0
      ],
      "name": "GLTF_SceneRootNode"
    },
    {
      "children": [
        4
      ],
      "matrix": [
        1.0,
        0.0,
        0.0,
        0.0,
        0.0,
        0.0,
        1.0,
        0.0,
        0.0,
        -1.0,
        0.0,
        0.0,
        0.0,
        0.0,
        0.0,
        1.0
      ],
      "name": "N_3_border_0"
    },
    {
      "mesh": 0,
      "name": "Object_4"
    },
    {
      "children": [
        6
      ],
      "matrix": [
        1.0,
        0.0,
        0.0,
        0.0,
        0.0,
        0.0,
        1.0,
        0.0,
        0.0,
        -1.0,
        0.0,
        0.0,
        0.0,
        0.0,
        0.0,
        1.0
      ],
      "name": "N_3_side_1"
    },
    {
      "mesh": 1,
      "name": "Object_6"
    },
    {
      "children": [
        8
      ],
      "matrix": [
        1.0,
        0.0,
        0.0,
        0.0,
        0.0,
        0.0,
        1.0,
        0.0,
        0.0,
        -1.0,
        0.0,
        0.0,
        0.0,
        0.0,
        0.0,
        1.0
      ],
      "name": "N_3_smaller_2"
    },
    {
      "mesh": 2,
      "name": "Object_8"
    }
  ],
  "scene": 0,
  "scenes": [
    {
      "name": "Sketchfab_Scene",
      "nodes": [
        0
      ]
    }
  ]
}
