{
  "accessors": [
    {
      "bufferView": 2,
      "componentType": 5126,
      "count": 4274,
      "max": [
        0.22858348488807678,
        0.08700001239776611,
        0.28183403611183167
      ],
      "min": [
        -0.22612157464027405,
        -0.08699999749660492,
        -0.28166279196739197
      ],
      "type": "VEC3"
    },
    {
      "bufferView": 2,
      "byteOffset": 51288,
      "componentType": 5126,
      "count": 4274,
      "max": [
        0.9969209432601929,
        1.0,
        0.9969176054000854
      ],
      "min": [
        -0.9969242811203003,
        -1.0,
        -0.999361515045166
      ],
      "type": "VEC3"
    },
    {
      "bufferView": 1,
      "componentType": 5126,
      "count": 4274,
      "max": [
        1.0,
        1.0
      ],
      "min": [
        0.0,
        0.0
      ],
      "type": "VEC2"
    },
    {
      "bufferView": 0,
      "componentType": 5125,
      "count": 21672,
      "type": "SCALAR"
    },
    {
      "bufferView": 2,
      "byteOffset": 102576,
      "componentType": 5126,
      "count": 4268,
      "max": [
        0.23181214928627014,
        0.08499999344348907,
        0.28410181403160095
      ],
      "min": [
        -0.22889405488967896,
        -0.08500000834465027,
        -0.28539586067199707
      ],
      "type": "VEC3"
    },
    {
      "bufferView": 2,
      "byteOffset": 153792,
      "componentType": 5126,
      "count": 4268,
      "max": [
        0.9969209432601929,
        1.0,
        0.996917724609375
      ],
      "min": [
        -0.9969242811203003,
        -1.0,
        -0.9993622303009033
      ],
      "type": "VEC3"
    },
    {
      "bufferView": 1,
      "byteOffset": 34192,
      "componentType": 5126,
      "count": 4268,
      "max": [
        1.0,
        1.0
      ],
      "min": [
        0.0,
        0.0
      ],
      "type": "VEC2"
    },
    {
      "bufferView": 0,
      "byteOffset": 86688,
      "componentType": 5125,
      "count": 21672,
      "type": "SCALAR"
    },
    {
      "bufferView": 2,
      "byteOffset": 205008,
      "componentType": 5126,
      "count": 4271,
      "max": [
        0.22107383608818054,
        0.09200000017881393,
        0.27658364176750183
      ],
      "min": [
        -0.21962852776050568,
        -0.09200000017881393,
        -0.2729111313819885
      ],
      "type": "VEC3"
    },
    {
      "bufferView": 2,
      "byteOffset": 256260,
      "componentType": 5126,
      "count": 4271,
      "max": [
        0.9969209432601929,
        1.0,
        0.996917724609375
      ],
      "min": [
        -0.9969242811203003,
        -1.0,
        -0.9993637800216675
      ],
      "type": "VEC3"
    },
    {
      "bufferView": 1,
      "byteOffset": 68336,
      "componentType": 5126,
      "count": 4271,
      "max": [
        1.0,
        1.0
      ],
      "min": [
        0.0,
        0.0
      ],
      "type": "VEC2"
    },
    {
      "bufferView": 0,
      "byteOffset": 173376,
      "componentType": 5125,
      "count": 21672,
      "type": "SCALAR"
    }
  ],
  "asset": {
    "extras": {
      "author": "Jihambru (https://sketchfab.com/jihambru)",
      "license": "CC-BY-4.0 (http://creativecommons.org/licenses/by/4.0/)",
      "source": "https://sketchfab.com/3d-models/3d-number-9-nine-4365e1708e08443097f8bf313569622f",
      "title": "3D Number - 9 (NINE)"
    },
    "generator": "Sketchfab-12.68.0",
    "version": "2.0"
  },
  "bufferViews": [
    {
      "buffer": 0,
      "byteLength": 260064,
      "name": "floatBufferViews",
      "target": 34963
    },
    {
      "buffer": 0,
      "byteLength": 102504,
      "byteOffset": 260064,
      "byteStride": 8,
      "name": "floatBufferViews",
      "target": 34962
    },
    {
      "buffer": 0,
      "byteLength": 307512,
      "byteOffset": 362568,
      "byteStride": 12,
      "name": "floatBufferViews",
      "target": 34962
    }
  ],
  "buffers": [
    {
      "byteLength": 670080,
      "uri": "scene.bin"
    }
  ],
  "materials": [
    {
      "doubleSided": true,
      "emissiveFactor": [
        0.0349891,
        0.21477899999999991,
        0.9699419999999996
      ],
      "name": "Shine_blue_th",
      "pbrMetallicRoughness": {
        "baseColorFactor": [
          0.0349891,
          0.21477899999999991,
          0.9699419999999996,
          1.0
        ],
        "metallicFactor": 0.0,
        "roughnessFactor": 0.5
      }
    },
    {
      "doubleSided": true,
      "name": "Metal_gray",
      "pbrMetallicRoughness": {
        "baseColorFactor": [
          0.205885,
          0.205886,
          0.246187,
          1.0
        ],
        "roughnessFactor": 0.17
      }
    }
  ],
  "meshes": [
    {
      "name": "Object_0",
      "primitives": [
        {
          "attributes": {
            "NORMAL": 1,
            "POSITION": 0,
            "TEXCOORD_0": 2
          },
          "indices": 3,
          "material": 0,
          "mode": 4
        }
      ]
    },
    {
      "name": "Object_1",
      "primitives": [
        {
          "attributes": {
            "NORMAL": 5,
            "POSITION": 4,
            "TEXCOORD_0": 6
          },
          "indices": 7,
          "material": 1,
          "mode": 4
        }
      ]
    },
    {
      "name": "Object_2",
      "primitives": [
        {
          "attributes": {
            "NORMAL": 9,
            "POSITION": 8,
            "TEXCOORD_0": 10
          },
          "indices": 11,
          "material": 1,
          "mode": 4
        }
      ]
    }
  ],
  "nodes": [
    {
      "children": [
        1
      ],
      "matrix": [
        1.0,
        0.0,
        0.0,
        0.0,
        0.0,
        2.220446049250313e-16,
        -1.0,
        0.0,
        0.0,
        1.0,
        2.220446049250313e-16,
        0.0,
        0.0,
        0.0,
        0.0,
        1.0
      ],
      "name": "Sketchfab_model"
    },
    {
      "children": [
        2
      ],
      "name": "root"
    },
    {
      "children": [
        3,
        5,
        7
      ],
      "matrix": [
        1.0,
        0.0,
        0.0,
        0.0,
        0.0,
        2.220446049250313e-16,
        1.0,
        0.0,
        0.0,
        -1.0,
        2.220446049250313e-16,
        0.0,
        0.0,
        0.0,
        0.0,
        1.0
      ],
      "name": "GLTF_SceneRootNode"
    },
    {
      "children": [
        4
      ],
      "matrix": [
        1.0,
        0.0,
        0.0,
        0.0,
        0.0,
        0.0,
        1.0,
        0.0,
        0.0,
        -1.0,
        0.0,
        0.0,
        0.0,
        0.0,
        0.0,
        1.0
      ],
      "name": "N_9_border_0"
    },
    {
      "mesh": 0,
      "name": "Object_4"
    },
    {
      "children": [
        6
      ],
      "matrix": [
        1.0,
        0.0,
        0.0,
        0.0,
        0.0,
        0.0,
        1.0,
        0.0,
        0.0,
        -1.0,
        0.0,
        0.0,
        0.0,
        0.0,
        0.0,
        1.0
      ],
      "name": "N_9_side_1"
    },
    {
      "mesh": 1,
      "name": "Object_6"
    },
    {
      "children": [
        8
      ],
      "matrix": [
        1.0,
        0.0,
        0.0,
        0.0,
        0.0,
        0.0,
        1.0,
        0.0,
        0.0,
        -1.0,
        0.0,
        0.0,
        0.0,
        0.0,
        0.0,
        1.0
      ],
      "name": "N_9_smaller_2"
    },
    {
      "mesh": 2,
      "name": "Object_8"
    }
  ],
  "scene": 0,
  "scenes": [
    {
      "name": "Sketchfab_Scene",
      "nodes": [
        0
      ]
    }
  ]
}
