{
  "accessors": [
    {
      "bufferView": 2,
      "componentType": 5126,
      "count": 2301,
      "max": [
        0.2235291749238968,
        0.08700000494718552,
        0.27727633714675903
      ],
      "min": [
        -0.2235291600227356,
        -0.08700000494718552,
        -0.2772763669490814
      ],
      "type": "VEC3"
    },
    {
      "bufferView": 2,
      "byteOffset": 27612,
      "componentType": 5126,
      "count": 2301,
      "max": [
        0.9969222545623779,
        1.0,
        0.9969118237495422
      ],
      "min": [
        -0.996903121471405,
        -1.0,
        -0.9969214200973511
      ],
      "type": "VEC3"
    },
    {
      "bufferView": 1,
      "componentType": 5126,
      "count": 2301,
      "max": [
        1.0,
        1.0
      ],
      "min": [
        0.0,
        0.0
      ],
      "type": "VEC2"
    },
    {
      "bufferView": 0,
      "componentType": 5125,
      "count": 11724,
      "type": "SCALAR"
    },
    {
      "bufferView": 2,
      "byteOffset": 55224,
      "componentType": 5126,
      "count": 2301,
      "max": [
        0.22715738415718079,
        0.08500000089406967,
        0.28027650713920593
      ],
      "min": [
        -0.2271573543548584,
        -0.08500000089406967,
        -0.2802765369415283
      ],
      "type": "VEC3"
    },
    {
      "bufferView": 2,
      "byteOffset": 82836,
      "componentType": 5126,
      "count": 2301,
      "max": [
        0.9969222545623779,
        1.0,
        0.9969118237495422
      ],
      "min": [
        -0.996903121471405,
        -1.0,
        -0.9969214200973511
      ],
      "type": "VEC3"
    },
    {
      "bufferView": 1,
      "byteOffset": 18408,
      "componentType": 5126,
      "count": 2301,
      "max": [
        1.0,
        1.0
      ],
      "min": [
        0.0,
        0.0
      ],
      "type": "VEC2"
    },
    {
      "bufferView": 0,
      "byteOffset": 46896,
      "componentType": 5125,
      "count": 11724,
      "type": "SCALAR"
    },
    {
      "bufferView": 2,
      "byteOffset": 110448,
      "componentType": 5126,
      "count": 2301,
      "max": [
        0.21506337821483612,
        0.09200000017881393,
        0.2702759802341461
      ],
      "min": [
        -0.21506337821483612,
        -0.09200000017881393,
        -0.2702759802341461
      ],
      "type": "VEC3"
    },
    {
      "bufferView": 2,
      "byteOffset": 138060,
      "componentType": 5126,
      "count": 2301,
      "max": [
        0.9969222545623779,
        1.0,
        0.9969118237495422
      ],
      "min": [
        -0.996903121471405,
        -1.0,
        -0.9969214200973511
      ],
      "type": "VEC3"
    },
    {
      "bufferView": 1,
      "byteOffset": 36816,
      "componentType": 5126,
      "count": 2301,
      "max": [
        1.0,
        1.0
      ],
      "min": [
        0.0,
        0.0
      ],
      "type": "VEC2"
    },
    {
      "bufferView": 0,
      "byteOffset": 93792,
      "componentType": 5125,
      "count": 11724,
      "type": "SCALAR"
    }
  ],
  "asset": {
    "extras": {
      "author": "Jihambru (https://sketchfab.com/jihambru)",
      "license": "CC-BY-4.0 (http://creativecommons.org/licenses/by/4.0/)",
      "source": "https://sketchfab.com/3d-models/3d-number-2-two-885febcfa1d749a3a3d982ae7bea9b45",
      "title": "3D Number - 2 (TWO)"
    },
    "generator": "Sketchfab-12.68.0",
    "version": "2.0"
  },
  "bufferViews": [
    {
      "buffer": 0,
      "byteLength": 140688,
      "name": "floatBufferViews",
      "target": 34963
    },
    {
      "buffer": 0,
      "byteLength": 55224,
      "byteOffset": 140688,
      "byteStride": 8,
      "name": "floatBufferViews",
      "target": 34962
    },
    {
      "buffer": 0,
      "byteLength": 165672,
      "byteOffset": 195912,
      "byteStride": 12,
      "name": "floatBufferViews",
      "target": 34962
    }
  ],
  "buffers": [
    {
      "byteLength": 361584,
      "uri": "scene.bin"
    }
  ],
  "materials": [
    {
      "doubleSided": true,
      "emissiveFactor": [
        0.0349891,
        0.214779,
        0.969942
      ],
      "name": "Shine_blue_th",
      "pbrMetallicRoughness": {
        "baseColorFactor": [
          0.0349891,
          0.214779,
          0.969942,
          1.0
        ],
        "metallicFactor": 0.0,
        "roughnessFactor": 0.5
      }
    },
    {
      "doubleSided": true,
      "name": "Metal_gray",
      "pbrMetallicRoughness": {
        "baseColorFactor": [
          0.205885,
          0.205886,
          0.246187,
          1.0
        ],
        "roughnessFactor": 0.17
      }
    }
  ],
  "meshes": [
    {
      "name": "Object_0",
      "primitives": [
        {
          "attributes": {
            "NORMAL": 1,
            "POSITION": 0,
            "TEXCOORD_0": 2
          },
          "indices": 3,
          "material": 0,
          "mode": 4
        }
      ]
    },
    {
      "name": "Object_1",
      "primitives": [
        {
          "attributes": {
            "NORMAL": 5,
            "POSITION": 4,
            "TEXCOORD_0": 6
          },
          "indices": 7,
          "material": 1,
          "mode": 4
        }
      ]
    },
    {
      "name": "Object_2",
      "primitives": [
        {
          "attributes": {
            "NORMAL": 9,
            "POSITION": 8,
            "TEXCOORD_0": 10
          },
          "indices": 11,
          "material": 1,
          "mode": 4
        }
      ]
    }
  ],
  "nodes": [
    {
      "children": [
        1
      ],
      "matrix": [
        1.0,
        0.0,
        0.0,
        0.0,
        0.0,
        2.220446049250313e-16,
        -1.0,
        0.0,
        0.0,
        1.0,
        2.220446049250313e-16,
        0.0,
        0.0,
        0.0,
        0.0,
        1.0
      ],
      "name": "Sketchfab_model"
    },
    {
      "children": [
        2
      ],
      "name": "root"
    },
    {
      "children": [
        3,
        5,
        7
      ],
      "matrix": [
        1.0,
        0.0,
        0.0,
        0.0,
        0.0,
        2.220446049250313e-16,
        1.0,
        0.0,
        0.0,
        -1.0,
        2.220446049250313e-16,
        0.0,
        0.0,
        0.0,
        0.0,
        1.0
      ],
      "name": "GLTF_SceneRootNode"
    },
    {
      "children": [
        4
      ],
      "matrix": [
        1.0,
        0.0,
        0.0,
        0.0,
        0.0,
        0.0,
        1.0,
        0.0,
        0.0,
        -1.0,
        0.0,
        0.0,
        0.0,
        0.0,
        0.0,
        1.0
      ],
      "name": "N_2_border_0"
    },
    {
      "mesh": 0,
      "name": "Object_4"
    },
    {
      "children": [
        6
      ],
      "matrix": [
        1.0,
        0.0,
        0.0,
        0.0,
        0.0,
        0.0,
        1.0,
        0.0,
        0.0,
        -1.0,
        0.0,
        0.0,
        0.0,
        0.0,
        0.0,
        1.0
      ],
      "name": "N_2_side_1"
    },
    {
      "mesh": 1,
      "name": "Object_6"
    },
    {
      "children": [
        8
      ],
      "matrix": [
        1.0,
        0.0,
        0.0,
        0.0,
        0.0,
        0.0,
        1.0,
        0.0,
        0.0,
        -1.0,
        0.0,
        0.0,
        0.0,
        0.0,
        0.0,
        1.0
      ],
      "name": "N_2_smaller_2"
    },
    {
      "mesh": 2,
      "name": "Object_8"
    }
  ],
  "scene": 0,
  "scenes": [
    {
      "name": "Sketchfab_Scene",
      "nodes": [
        0
      ]
    }
  ]
}
