{
  "accessors": [
    {
      "bufferView": 2,
      "componentType": 5126,
      "count": 6169,
      "max": [
        0.2318403124809265,
        0.08700000494718552,
        0.2785066068172455
      ],
      "min": [
        -0.23180803656578064,
        -0.08700000494718552,
        -0.2849887013435364
      ],
      "type": "VEC3"
    },
    {
      "bufferView": 2,
      "byteOffset": 74028,
      "componentType": 5126,
      "count": 6169,
      "max": [
        0.9969232082366943,
        1.0,
        0.9969218969345093
      ],
      "min": [
        -0.9969234466552734,
        -1.0,
        -0.9969218969345093
      ],
      "type": "VEC3"
    },
    {
      "bufferView": 1,
      "componentType": 5126,
      "count": 6169,
      "max": [
        1.0,
        1.0
      ],
      "min": [
        0.0,
        0.0
      ],
      "type": "VEC2"
    },
    {
      "bufferView": 0,
      "componentType": 5125,
      "count": 31116,
      "type": "SCALAR"
    },
    {
      "bufferView": 2,
      "byteOffset": 148056,
      "componentType": 5126,
      "count": 6163,
      "max": [
        0.2348325401544571,
        0.08499998599290848,
        0.28156232833862305
      ],
      "min": [
        -0.2348172813653946,
        -0.08500001579523087,
        -0.28793343901634216
      ],
      "type": "VEC3"
    },
    {
      "bufferView": 2,
      "byteOffset": 222012,
      "componentType": 5126,
      "count": 6163,
      "max": [
        0.9969232082366943,
        1.0,
        0.9969218969345093
      ],
      "min": [
        -0.9969234466552734,
        -1.0,
        -0.9969218969345093
      ],
      "type": "VEC3"
    },
    {
      "bufferView": 1,
      "byteOffset": 49352,
      "componentType": 5126,
      "count": 6163,
      "max": [
        1.0,
        1.0
      ],
      "min": [
        0.0,
        0.0
      ],
      "type": "VEC2"
    },
    {
      "bufferView": 0,
      "byteOffset": 124464,
      "componentType": 5125,
      "count": 31116,
      "type": "SCALAR"
    },
    {
      "bufferView": 2,
      "byteOffset": 295968,
      "componentType": 5126,
      "count": 6175,
      "max": [
        0.22486042976379395,
        0.09200000017881393,
        0.271371066570282
      ],
      "min": [
        -0.22478437423706055,
        -0.09200000017881393,
        -0.27812305092811584
      ],
      "type": "VEC3"
    },
    {
      "bufferView": 2,
      "byteOffset": 370068,
      "componentType": 5126,
      "count": 6175,
      "max": [
        0.9969232082366943,
        1.0,
        0.9969218969345093
      ],
      "min": [
        -0.9969234466552734,
        -1.0,
        -0.9969218969345093
      ],
      "type": "VEC3"
    },
    {
      "bufferView": 1,
      "byteOffset": 98656,
      "componentType": 5126,
      "count": 6175,
      "max": [
        1.0,
        1.0
      ],
      "min": [
        0.0,
        0.0
      ],
      "type": "VEC2"
    },
    {
      "bufferView": 0,
      "byteOffset": 248928,
      "componentType": 5125,
      "count": 31116,
      "type": "SCALAR"
    }
  ],
  "asset": {
    "extras": {
      "author": "Jihambru (https://sketchfab.com/jihambru)",
      "license": "CC-BY-4.0 (http://creativecommons.org/licenses/by/4.0/)",
      "source": "https://sketchfab.com/3d-models/3d-number-8-eight-cf1a5c61a3c84d3f877fa796926c4a4c",
      "title": "3D Number - 8 (EIGHT)"
    },
    "generator": "Sketchfab-12.68.0",
    "version": "2.0"
  },
  "bufferViews": [
    {
      "buffer": 0,
      "byteLength": 373392,
      "name": "floatBufferViews",
      "target": 34963
    },
    {
      "buffer": 0,
      "byteLength": 148056,
      "byteOffset": 373392,
      "byteStride": 8,
      "name": "floatBufferViews",
      "target": 34962
    },
    {
      "buffer": 0,
      "byteLength": 444168,
      "byteOffset": 521448,
      "byteStride": 12,
      "name": "floatBufferViews",
      "target": 34962
    }
  ],
  "buffers": [
    {
      "byteLength": 965616,
      "uri": "scene.bin"
    }
  ],
  "materials": [
    {
      "doubleSided": true,
      "emissiveFactor": [
        0.0349891,
        0.214779,
        0.969942
      ],
      "name": "Shine_blue_th",
      "pbrMetallicRoughness": {
        "baseColorFactor": [
          0.0349891,
          0.214779,
          0.969942,
          1.0
        ],
        "metallicFactor": 0.0,
        "roughnessFactor": 0.5
      }
    },
    {
      "doubleSided": true,
      "name": "Metal_gray",
      "pbrMetallicRoughness": {
        "baseColorFactor": [
          0.205885,
          0.205886,
          0.246187,
          1.0
        ],
        "roughnessFactor": 0.17
      }
    }
  ],
  "meshes": [
    {
      "name": "Object_0",
      "primitives": [
        {
          "attributes": {
            "NORMAL": 1,
            "POSITION": 0,
            "TEXCOORD_0": 2
          },
          "indices": 3,
          "material": 0,
          "mode": 4
        }
      ]
    },
    {
      "name": "Object_1",
      "primitives": [
        {
          "attributes": {
            "NORMAL": 5,
            "POSITION": 4,
            "TEXCOORD_0": 6
          },
          "indices": 7,
          "material": 1,
          "mode": 4
        }
      ]
    },
    {
      "name": "Object_2",
      "primitives": [
        {
          "attributes": {
            "NORMAL": 9,
            "POSITION": 8,
            "TEXCOORD_0": 10
          },
          "indices": 11,
          "material": 1,
          "mode": 4
        }
      ]
    }
  ],
  "nodes": [
    {
      "children": [
        1
      ],
      "matrix": [
        1.0,
        0.0,
        0.0,
        0.0,
        0.0,
        2.220446049250313e-16,
        -1.0,
        0.0,
        0.0,
        1.0,
        2.220446049250313e-16,
        0.0,
        0.0,
        0.0,
        0.0,
        1.0
      ],
      "name": "Sketchfab_model"
    },
    {
      "children": [
        2
      ],
      "name": "root"
    },
    {
      "children": [
        3,
        5,
        7
      ],
      "matrix": [
        1.0,
        0.0,
        0.0,
        0.0,
        0.0,
        2.220446049250313e-16,
        1.0,
        0.0,
        0.0,
        -1.0,
        2.220446049250313e-16,
        0.0,
        0.0,
        0.0,
        0.0,
        1.0
      ],
      "name": "GLTF_SceneRootNode"
    },
    {
      "children": [
        4
      ],
      "matrix": [
        1.0,
        0.0,
        0.0,
        0.0,
        0.0,
        0.0,
        1.0,
        0.0,
        0.0,
        -1.0,
        0.0,
        0.0,
        0.0,
        0.0,
        0.0,
        1.0
      ],
      "name": "N_8_border_0"
    },
    {
      "mesh": 0,
      "name": "Object_4"
    },
    {
      "children": [
        6
      ],
      "matrix": [
        1.0,
        0.0,
        0.0,
        0.0,
        0.0,
        0.0,
        1.0,
        0.0,
        0.0,
        -1.0,
        0.0,
        0.0,
        0.0,
        0.0,
        0.0,
        1.0
      ],
      "name": "N_8_side_1"
    },
    {
      "mesh": 1,
      "name": "Object_6"
    },
    {
      "children": [
        8
      ],
      "matrix": [
        1.0,
        0.0,
        0.0,
        0.0,
        0.0,
        0.0,
        1.0,
        0.0,
        0.0,
        -1.0,
        0.0,
        0.0,
        0.0,
        0.0,
        0.0,
        1.0
      ],
      "name": "N_8_smaller_2"
    },
    {
      "mesh": 2,
      "name": "Object_8"
    }
  ],
  "scene": 0,
  "scenes": [
    {
      "name": "Sketchfab_Scene",
      "nodes": [
        0
      ]
    }
  ]
}
