{
  "accessors": [
    {
      "bufferView": 2,
      "componentType": 5126,
      "count": 140,
      "max": [
        0.22487296164035797,
        0.08700000494718552,
        0.3320305049419403
      ],
      "min": [
        -0.21715983748435974,
        -0.08700000494718552,
        -0.21357905864715576
      ],
      "type": "VEC3"
    },
    {
      "bufferView": 2,
      "byteOffset": 1680,
      "componentType": 5126,
      "count": 140,
      "max": [
        0.9757826328277588,
        1.0,
        0.8333531618118286
      ],
      "min": [
        -0.8306686282157898,
        -1.0,
        -0.7032058238983154
      ],
      "type": "VEC3"
    },
    {
      "bufferView": 1,
      "componentType": 5126,
      "count": 140,
      "max": [
        1.0,
        1.0
      ],
      "min": [
        0.0,
        0.0
      ],
      "type": "VEC2"
    },
    {
      "bufferView": 0,
      "componentType": 5125,
      "count": 636,
      "type": "SCALAR"
    },
    {
      "bufferView": 2,
      "byteOffset": 3360,
      "componentType": 5126,
      "count": 140,
      "max": [
        0.2285032421350479,
        0.08500000089406967,
        0.3343048691749573
      ],
      "min": [
        -0.21952953934669495,
        -0.08500000089406967,
        -0.21730464696884155
      ],
      "type": "VEC3"
    },
    {
      "bufferView": 2,
      "byteOffset": 5040,
      "componentType": 5126,
      "count": 140,
      "max": [
        0.9757826328277588,
        1.0,
        0.8333531618118286
      ],
      "min": [
        -0.8306686282157898,
        -1.0,
        -0.7032058238983154
      ],
      "type": "VEC3"
    },
    {
      "bufferView": 1,
      "byteOffset": 1120,
      "componentType": 5126,
      "count": 140,
      "max": [
        1.0,
        1.0
      ],
      "min": [
        0.0,
        0.0
      ],
      "type": "VEC2"
    },
    {
      "bufferView": 0,
      "byteOffset": 2544,
      "componentType": 5125,
      "count": 636,
      "type": "SCALAR"
    },
    {
      "bufferView": 2,
      "byteOffset": 6720,
      "componentType": 5126,
      "count": 140,
      "max": [
        0.21626947820186615,
        0.09200000017881393,
        0.3268963694572449
      ],
      "min": [
        -0.21176332235336304,
        -0.09200000017881393,
        -0.20471316576004028
      ],
      "type": "VEC3"
    },
    {
      "bufferView": 2,
      "byteOffset": 8400,
      "componentType": 5126,
      "count": 140,
      "max": [
        0.9757826328277588,
        1.0,
        0.8333531618118286
      ],
      "min": [
        -0.8306686282157898,
        -1.0,
        -0.7032058238983154
      ],
      "type": "VEC3"
    },
    {
      "bufferView": 1,
      "byteOffset": 2240,
      "componentType": 5126,
      "count": 140,
      "max": [
        1.0,
        1.0
      ],
      "min": [
        0.0,
        0.0
      ],
      "type": "VEC2"
    },
    {
      "bufferView": 0,
      "byteOffset": 5088,
      "componentType": 5125,
      "count": 636,
      "type": "SCALAR"
    }
  ],
  "asset": {
    "extras": {
      "author": "Jihambru (https://sketchfab.com/jihambru)",
      "license": "CC-BY-4.0 (http://creativecommons.org/licenses/by/4.0/)",
      "source": "https://sketchfab.com/3d-models/3d-number-7-seven-90c029f72f094c86a9d6b7537cdb94d7",
      "title": "3D Number - 7 (SEVEN)"
    },
    "generator": "Sketchfab-12.68.0",
    "version": "2.0"
  },
  "bufferViews": [
    {
      "buffer": 0,
      "byteLength": 7632,
      "name": "floatBufferViews",
      "target": 34963
    },
    {
      "buffer": 0,
      "byteLength": 3360,
      "byteOffset": 7632,
      "byteStride": 8,
      "name": "floatBufferViews",
      "target": 34962
    },
    {
      "buffer": 0,
      "byteLength": 10080,
      "byteOffset": 10992,
      "byteStride": 12,
      "name": "floatBufferViews",
      "target": 34962
    }
  ],
  "buffers": [
    {
      "byteLength": 21072,
      "uri": "scene.bin"
    }
  ],
  "materials": [
    {
      "doubleSided": true,
      "emissiveFactor": [
        0.0349891,
        0.21477899999999991,
        0.9699419999999996
      ],
      "name": "Shine_blue_th",
      "pbrMetallicRoughness": {
        "baseColorFactor": [
          0.0349891,
          0.21477899999999991,
          0.9699419999999996,
          1.0
        ],
        "metallicFactor": 0.0,
        "roughnessFactor": 0.5
      }
    },
    {
      "doubleSided": true,
      "name": "Metal_gray",
      "pbrMetallicRoughness": {
        "baseColorFactor": [
          0.205885,
          0.205886,
          0.246187,
          1.0
        ],
        "roughnessFactor": 0.17
      }
    }
  ],
  "meshes": [
    {
      "name": "Object_0",
      "primitives": [
        {
          "attributes": {
            "NORMAL": 1,
            "POSITION": 0,
            "TEXCOORD_0": 2
          },
          "indices": 3,
          "material": 0,
          "mode": 4
        }
      ]
    },
    {
      "name": "Object_1",
      "primitives": [
        {
          "attributes": {
            "NORMAL": 5,
            "POSITION": 4,
            "TEXCOORD_0": 6
          },
          "indices": 7,
          "material": 1,
          "mode": 4
        }
      ]
    },
    {
      "name": "Object_2",
      "primitives": [
        {
          "attributes": {
            "NORMAL": 9,
            "POSITION": 8,
            "TEXCOORD_0": 10
          },
          "indices": 11,
          "material": 1,
          "mode": 4
        }
      ]
    }
  ],
  "nodes": [
    {
      "children": [
        1
      ],
      "matrix": [
        1.0,
        0.0,
        0.0,
        0.0,
        0.0,
        2.220446049250313e-16,
        -1.0,
        0.0,
        0.0,
        1.0,
        2.220446049250313e-16,
        0.0,
        0.0,
        0.0,
        0.0,
        1.0
      ],
      "name": "Sketchfab_model"
    },
    {
      "children": [
        2
      ],
      "name": "root"
    },
    {
      "children": [
        3,
        5,
        7
      ],
      "matrix": [
        1.0,
        0.0,
        0.0,
        0.0,
        0.0,
        2.220446049250313e-16,
        1.0,
        0.0,
        0.0,
        -1.0,
        2.220446049250313e-16,
        0.0,
        0.0,
        0.0,
        0.0,
        1.0
      ],
      "name": "GLTF_SceneRootNode"
    },
    {
      "children": [
        4
      ],
      "matrix": [
        1.0,
        0.0,
        0.0,
        0.0,
        0.0,
        0.0,
        1.0,
        0.0,
        0.0,
        -1.0,
        0.0,
        0.0,
        0.0,
        0.0,
        0.0,
        1.0
      ],
      "name": "N_7_border_0"
    },
    {
      "mesh": 0,
      "name": "Object_4"
    },
    {
      "children": [
        6
      ],
      "matrix": [
        1.0,
        0.0,
        0.0,
        0.0,
        0.0,
        0.0,
        1.0,
        0.0,
        0.0,
        -1.0,
        0.0,
        0.0,
        0.0,
        0.0,
        0.0,
        1.0
      ],
      "name": "N_7_side_1"
    },
    {
      "mesh": 1,
      "name": "Object_6"
    },
    {
      "children": [
        8
      ],
      "matrix": [
        1.0,
        0.0,
        0.0,
        0.0,
        0.0,
        0.0,
        1.0,
        0.0,
        0.0,
        -1.0,
        0.0,
        0.0,
        0.0,
        0.0,
        0.0,
        1.0
      ],
      "name": "N_7_smaller_2"
    },
    {
      "mesh": 2,
      "name": "Object_8"
    }
  ],
  "scene": 0,
  "scenes": [
    {
      "name": "Sketchfab_Scene",
      "nodes": [
        0
      ]
    }
  ]
}
