{
  "accessors": [
    {
      "bufferView": 2,
      "componentType": 5126,
      "count": 3513,
      "max": [
        0.3840721845626831,
        0.08699999749660492,
        0.29241901636123657
      ],
      "min": [
        -0.40296927094459534,
        -0.08700001239776611,
        -0.27107948064804077
      ],
      "type": "VEC3"
    },
    {
      "bufferView": 2,
      "byteOffset": 42156,
      "componentType": 5126,
      "count": 3513,
      "max": [
        0.9969218969345093,
        1.0,
        0.9969242811203003
      ],
      "min": [
        -0.9969218969345093,
        -1.0,
        -0.9969242811203003
      ],
      "type": "VEC3"
    },
    {
      "bufferView": 1,
      "componentType": 5126,
      "count": 3513,
      "max": [
        1.0,
        1.0
      ],
      "min": [
        0.0,
        0.0
      ],
      "type": "VEC2"
    },
    {
      "bufferView": 0,
      "componentType": 5125,
      "count": 17700,
      "type": "SCALAR"
    },
    {
      "bufferView": 2,
      "byteOffset": 84312,
      "componentType": 5126,
      "count": 3510,
      "max": [
        0.38793471455574036,
        0.08500000834465027,
        0.2953852415084839
      ],
      "min": [
        -0.4051070511341095,
        -0.08499999344348907,
        -0.27411457896232605
      ],
      "type": "VEC3"
    },
    {
      "bufferView": 2,
      "byteOffset": 126432,
      "componentType": 5126,
      "count": 3510,
      "max": [
        0.9969218969345093,
        1.0,
        0.9969242811203003
      ],
      "min": [
        -0.9969218969345093,
        -1.0,
        -0.9969242811203003
      ],
      "type": "VEC3"
    },
    {
      "bufferView": 1,
      "byteOffset": 28104,
      "componentType": 5126,
      "count": 3510,
      "max": [
        1.0,
        1.0
      ],
      "min": [
        0.0,
        0.0
      ],
      "type": "VEC2"
    },
    {
      "bufferView": 0,
      "byteOffset": 70800,
      "componentType": 5125,
      "count": 17700,
      "type": "SCALAR"
    },
    {
      "bufferView": 2,
      "byteOffset": 168552,
      "componentType": 5126,
      "count": 3515,
      "max": [
        0.3748793601989746,
        0.09200000017881393,
        0.285505473613739
      ],
      "min": [
        -0.3981614112854004,
        -0.09200000017881393,
        -0.26398998498916626
      ],
      "type": "VEC3"
    },
    {
      "bufferView": 2,
      "byteOffset": 210732,
      "componentType": 5126,
      "count": 3515,
      "max": [
        0.9969218969345093,
        1.0,
        0.9969242811203003
      ],
      "min": [
        -0.9969218969345093,
        -1.0,
        -0.9969242811203003
      ],
      "type": "VEC3"
    },
    {
      "bufferView": 1,
      "byteOffset": 56184,
      "componentType": 5126,
      "count": 3515,
      "max": [
        1.0,
        1.0
      ],
      "min": [
        0.0,
        0.0
      ],
      "type": "VEC2"
    },
    {
      "bufferView": 0,
      "byteOffset": 141600,
      "componentType": 5125,
      "count": 17700,
      "type": "SCALAR"
    }
  ],
  "asset": {
    "extras": {
      "author": "Jihambru (https://sketchfab.com/jihambru)",
      "license": "CC-BY-4.0 (http://creativecommons.org/licenses/by/4.0/)",
      "source": "https://sketchfab.com/3d-models/3d-number-10-ten-3e69d60362994c138dd16b0a8a60de38",
      "title": "3D Number - 10 (TEN)"
    },
    "generator": "Sketchfab-12.68.0",
    "version": "2.0"
  },
  "bufferViews": [
    {
      "buffer": 0,
      "byteLength": 212400,
      "name": "floatBufferViews",
      "target": 34963
    },
    {
      "buffer": 0,
      "byteLength": 84304,
      "byteOffset": 212400,
      "byteStride": 8,
      "name": "floatBufferViews",
      "target": 34962
    },
    {
      "buffer": 0,
      "byteLength": 252912,
      "byteOffset": 296704,
      "byteStride": 12,
      "name": "floatBufferViews",
      "target": 34962
    }
  ],
  "buffers": [
    {
      "byteLength": 549616,
      "uri": "scene.bin"
    }
  ],
  "materials": [
    {
      "doubleSided": true,
      "emissiveFactor": [
        0.0349891,
        0.21477899999999991,
        0.9699419999999996
      ],
      "name": "Shine_blue_th",
      "pbrMetallicRoughness": {
        "baseColorFactor": [
          0.0349891,
          0.21477899999999991,
          0.9699419999999996,
          1.0
        ],
        "metallicFactor": 0.0,
        "roughnessFactor": 0.5
      }
    },
    {
      "doubleSided": true,
      "name": "Metal_gray",
      "pbrMetallicRoughness": {
        "baseColorFactor": [
          0.205885,
          0.205886,
          0.246187,
          1.0
        ],
        "roughnessFactor": 0.17
      }
    }
  ],
  "meshes": [
    {
      "name": "Object_0",
      "primitives": [
        {
          "attributes": {
            "NORMAL": 1,
            "POSITION": 0,
            "TEXCOORD_0": 2
          },
          "indices": 3,
          "material": 0,
          "mode": 4
        }
      ]
    },
    {
      "name": "Object_1",
      "primitives": [
        {
          "attributes": {
            "NORMAL": 5,
            "POSITION": 4,
            "TEXCOORD_0": 6
          },
          "indices": 7,
          "material": 1,
          "mode": 4
        }
      ]
    },
    {
      "name": "Object_2",
      "primitives": [
        {
          "attributes": {
            "NORMAL": 9,
            "POSITION": 8,
            "TEXCOORD_0": 10
          },
          "indices": 11,
          "material": 1,
          "mode": 4
        }
      ]
    }
  ],
  "nodes": [
    {
      "children": [
        1
      ],
      "matrix": [
        1.0,
        0.0,
        0.0,
        0.0,
        0.0,
        2.220446049250313e-16,
        -1.0,
        0.0,
        0.0,
        1.0,
        2.220446049250313e-16,
        0.0,
        0.0,
        0.0,
        0.0,
        1.0
      ],
      "name": "Sketchfab_model"
    },
    {
      "children": [
        2
      ],
      "name": "root"
    },
    {
      "children": [
        3,
        5,
        7
      ],
      "matrix": [
        1.0,
        0.0,
        0.0,
        0.0,
        0.0,
        2.220446049250313e-16,
        1.0,
        0.0,
        0.0,
        -1.0,
        2.220446049250313e-16,
        0.0,
        0.0,
        0.0,
        0.0,
        1.0
      ],
      "name": "GLTF_SceneRootNode"
    },
    {
      "children": [
        4
      ],
      "matrix": [
        1.0,
        0.0,
        0.0,
        0.0,
        0.0,
        8.429369480200677e-08,
        0.9999999999999966,
        0.0,
        0.0,
        -0.9999999999999966,
        8.429369480200677e-08,
        0.0,
        0.0,
        0.0,
        0.0,
        1.0
      ],
      "name": "N_10_border_0"
    },
    {
      "mesh": 0,
      "name": "Object_4"
    },
    {
      "children": [
        6
      ],
      "matrix": [
        1.0,
        0.0,
        0.0,
        0.0,
        0.0,
        8.429369480200677e-08,
        0.9999999999999966,
        0.0,
        0.0,
        -0.9999999999999966,
        8.429369480200677e-08,
        0.0,
        0.0,
        0.0,
        0.0,
        1.0
      ],
      "name": "N_10_side_1"
    },
    {
      "mesh": 1,
      "name": "Object_6"
    },
    {
      "children": [
        8
      ],
      "matrix": [
        1.0,
        0.0,
        0.0,
        0.0,
        0.0,
        8.429369480200677e-08,
        0.9999999999999966,
        0.0,
        0.0,
        -0.9999999999999966,
        8.429369480200677e-08,
        0.0,
        0.0,
        0.0,
        0.0,
        1.0
      ],
      "name": "N_10_smaller_2"
    },
    {
      "mesh": 2,
      "name": "Object_8"
    }
  ],
  "scene": 0,
  "scenes": [
    {
      "name": "Sketchfab_Scene",
      "nodes": [
        0
      ]
    }
  ]
}
